<svg xmlns="http://www.w3.org/2000/svg" viewBox="0 0 384.92 88" width="384.92" height="88" role="img"><title>Espinal Multiservicios</title><g fill="#B94B24" transform="translate(4 0) scale(0.88)"><path d="M30 8H82V28H40C35.581722 28 32 31.581722 32 36V42H44V62H10V30C10 17.849736 18.954305 8 30 8Z"/><path d="M30 8H82V28H40C35.581722 28 32 31.581722 32 36V42H44V62H10V30C10 17.849736 18.954305 8 30 8Z" transform="rotate(180 50 50)"/></g><g fill="#17232B"><path transform="translate(106 63) scale(0.04 -0.04)" d="M344 0C234.648217 0 146 93.12475 146 208V1232C146 1346.87525 234.648217 1440 344 1440H1045V1214H460C425.758346 1214 398 1186.241654 398 1152V859H952V633H398V288C398 253.758346 425.758346 226 460 226H1065V0Z"/><path transform="translate(148.32 63) scale(0.04 -0.04)" d="M557 -30Q357 -30 232.0 60.0Q107 150 80 313L326 351Q345 271 410.0 225.0Q475 179 574 179Q661 179 708.5 213.5Q756 248 756 308Q756 345 738.5 367.5Q721 390 662.0 411.0Q603 432 481 464Q345 500 265.0 541.5Q185 583 150.0 640.0Q115 697 115 778Q115 879 168.0 954.0Q221 1029 316.0 1069.5Q411 1110 540 1110Q666 1110 763.5 1071.0Q861 1032 921.0 960.0Q981 888 995 791L749 747Q740 816 686.5 856.0Q633 896 544 901Q459 906 407.0 875.5Q355 845 355 790Q355 759 376.0 737.0Q397 715 460.5 693.0Q524 671 650 639Q779 606 856.5 563.5Q934 521 968.5 462.0Q1003 403 1003 319Q1003 156 884.5 63.0Q766 -30 557 -30Z"/><path transform="translate(190.36 63) scale(0.04 -0.04)" d="M659 -30Q501 -30 394.0 45.0Q287 120 233.0 249.5Q179 379 179 540Q179 703 233.0 832.0Q287 961 391.5 1035.5Q496 1110 650 1110Q803 1110 915.5 1035.5Q1028 961 1090.0 832.5Q1152 704 1152 540Q1152 378 1091.0 249.0Q1030 120 919.0 45.0Q808 -30 659 -30ZM138 -480V1080H351V322H381V-480ZM622 186Q716 186 777.0 233.0Q838 280 867.5 360.5Q897 441 897 540Q897 638 867.0 718.5Q837 799 774.0 846.5Q711 894 614 894Q522 894 464.0 849.5Q406 805 378.5 725.5Q351 646 351 540Q351 435 378.5 355.0Q406 275 465.5 230.5Q525 186 622 186Z"/><path transform="translate(238.44 63) scale(0.04 -0.04)" d="M160 1244V1465H401V1244ZM160 0V1080H401V0Z"/><path transform="translate(260.4 63) scale(0.04 -0.04)" d="M887 0V520Q887 571 880.0 633.0Q873 695 847.5 752.5Q822 810 771.5 847.0Q721 884 635 884Q589 884 544.0 869.0Q499 854 462.5 817.5Q426 781 404.0 717.5Q382 654 382 555L239 616Q239 754 292.5 866.0Q346 978 450.0 1044.5Q554 1111 706 1111Q826 1111 904.0 1071.0Q982 1031 1028.0 969.0Q1074 907 1096.0 837.0Q1118 767 1124.5 704.5Q1131 642 1131 603V0ZM138 0V1080H353V745H382V0Z"/><path transform="translate(309.4 63) scale(0.04 -0.04)" d="M442 -30Q325 -30 244.0 14.5Q163 59 121.5 133.0Q80 207 80 296Q80 374 106.0 436.5Q132 499 186.0 544.5Q240 590 326 619Q391 640 478.5 657.0Q566 674 668.5 688.5Q771 703 883 720L797 671Q798 783 747.0 836.0Q696 889 575 889Q502 889 434.0 855.0Q366 821 339 738L119 807Q159 944 271.5 1027.0Q384 1110 575 1110Q719 1110 828.5 1063.0Q938 1016 991 909Q1020 852 1026.0 792.5Q1032 733 1032 663V0H821V234L856 196Q783 79 685.5 24.5Q588 -30 442 -30ZM490 162Q572 162 630.0 191.0Q688 220 722.5 262.0Q757 304 769 341Q788 387 790.5 446.5Q793 506 793 543L867 521Q758 504 680.0 491.0Q602 478 546.0 466.5Q490 455 447 441Q405 426 376.0 406.0Q347 386 331.5 360.0Q316 334 316 299Q316 259 336.0 228.5Q356 198 394.5 180.0Q433 162 490 162Z"/><path transform="translate(354.92 63) scale(0.04 -0.04)" d="M160 1470H402V286C402 252.862915 429.758346 226 464 226H574V0H376C256.706494 0 160 96.706494 160 216Z"/></g></svg>